# xmcd
#
# Track frame offsets: 
#        150
#        20915
#        35225
#        52955
#        70165
#        87043
#        104498
#        122390
#        146945
#        152193
#        171168
#        185048
#        201348
#
# Disc length: 2839 seconds
#
# Revision: 1
# Processed by: cddbd v1.5.1PL2 Copyright (c) Steve Scherf et al.
# Submitted via: ExactAudioCopy v0.95b1
#
DISCID=c10b150d
DTITLE=Hugo Race and True Spirit - Earls World
DYEAR=1990
DGENRE=Crossover
TTITLE0=J-Wray Day
TTITLE1=The Grandpappy
TTITLE2=Send Me Your Pillow
TTITLE3=Boogie Chillen
TTITLE4=For Victoria
TTITLE5=Signifying
TTITLE6=John Hardy
TTITLE7=Earls Murder
TTITLE8=Rebel Walk
TTITLE9=Dirty Old Waltz
TTITLE10=The Old Wound Fever
TTITLE11=At Home Blues
TTITLE12=Hush-A-Bye Baby
EXTD=Normal 125 CD - www.helixed.net
EXTT0=
EXTT1=
EXTT2=
EXTT3=
EXTT4=
EXTT5=
EXTT6=
EXTT7=
EXTT8=
EXTT9=
EXTT10=
EXTT11=
EXTT12=
PLAYORDER=
